<mxfile host="65bd71144e">
    <diagram id="itYwGNKTDKS6jnbDwnu8" name="usecase">
        <mxGraphModel dx="1293" dy="512" grid="1" gridSize="10" guides="1" tooltips="1" connect="1" arrows="1" fold="1" page="1" pageScale="1" pageWidth="850" pageHeight="1100" math="0" shadow="0">
            <root>
                <mxCell id="0"/>
                <mxCell id="1" parent="0"/>
                <mxCell id="q4vtd61ncfg4aL-cKjWX-71" style="edgeStyle=none;html=1;entryX=0;entryY=0.5;entryDx=0;entryDy=0;" parent="1" source="q4vtd61ncfg4aL-cKjWX-3" target="q4vtd61ncfg4aL-cKjWX-9" edge="1">
                    <mxGeometry relative="1" as="geometry"/>
                </mxCell>
                <mxCell id="j2eRcDv0MJ3KzvMelL5I-61" style="edgeStyle=none;html=1;entryX=0;entryY=0.5;entryDx=0;entryDy=0;" parent="1" source="q4vtd61ncfg4aL-cKjWX-3" target="q4vtd61ncfg4aL-cKjWX-59" edge="1">
                    <mxGeometry relative="1" as="geometry"/>
                </mxCell>
                <mxCell id="j2eRcDv0MJ3KzvMelL5I-62" style="edgeStyle=none;html=1;entryX=0;entryY=0.5;entryDx=0;entryDy=0;" parent="1" source="q4vtd61ncfg4aL-cKjWX-3" target="q4vtd61ncfg4aL-cKjWX-60" edge="1">
                    <mxGeometry relative="1" as="geometry"/>
                </mxCell>
                <mxCell id="q4vtd61ncfg4aL-cKjWX-3" value="User" style="shape=umlActor;verticalLabelPosition=bottom;verticalAlign=top;html=1;outlineConnect=0;" parent="1" vertex="1">
                    <mxGeometry x="40" y="390" width="30" height="60" as="geometry"/>
                </mxCell>
                <mxCell id="q4vtd61ncfg4aL-cKjWX-5" value="" style="swimlane;startSize=0;" parent="1" vertex="1">
                    <mxGeometry x="120" y="10" width="500" height="1080" as="geometry"/>
                </mxCell>
                <mxCell id="q4vtd61ncfg4aL-cKjWX-6" value="View" style="ellipse;whiteSpace=wrap;html=1;" parent="q4vtd61ncfg4aL-cKjWX-5" vertex="1">
                    <mxGeometry x="230" y="45" width="75" height="50" as="geometry"/>
                </mxCell>
                <mxCell id="q4vtd61ncfg4aL-cKjWX-9" value="Dashboard" style="ellipse;whiteSpace=wrap;html=1;" parent="q4vtd61ncfg4aL-cKjWX-5" vertex="1">
                    <mxGeometry x="40" y="40" width="90" height="60" as="geometry"/>
                </mxCell>
                <mxCell id="q4vtd61ncfg4aL-cKjWX-10" value="" style="endArrow=none;dashed=1;html=1;exitX=1;exitY=0.5;exitDx=0;exitDy=0;entryX=0;entryY=0.5;entryDx=0;entryDy=0;" parent="q4vtd61ncfg4aL-cKjWX-5" source="q4vtd61ncfg4aL-cKjWX-9" target="q4vtd61ncfg4aL-cKjWX-6" edge="1">
                    <mxGeometry width="50" height="50" relative="1" as="geometry">
                        <mxPoint x="142.42640687119274" y="171.7157287525382" as="sourcePoint"/>
                        <mxPoint x="257.57359312880726" y="301.7157287525381" as="targetPoint"/>
                    </mxGeometry>
                </mxCell>
                <mxCell id="q4vtd61ncfg4aL-cKjWX-11" value="Extends" style="edgeLabel;html=1;align=center;verticalAlign=middle;resizable=0;points=[];" parent="q4vtd61ncfg4aL-cKjWX-10" vertex="1" connectable="0">
                    <mxGeometry x="-0.078" y="-1" relative="1" as="geometry">
                        <mxPoint as="offset"/>
                    </mxGeometry>
                </mxCell>
                <mxCell id="q4vtd61ncfg4aL-cKjWX-19" value="CRUD&lt;br&gt;Data" style="ellipse;whiteSpace=wrap;html=1;" parent="q4vtd61ncfg4aL-cKjWX-5" vertex="1">
                    <mxGeometry x="230" y="232" width="75" height="50" as="geometry"/>
                </mxCell>
                <mxCell id="q4vtd61ncfg4aL-cKjWX-59" value="Analytic" style="ellipse;whiteSpace=wrap;html=1;" parent="q4vtd61ncfg4aL-cKjWX-5" vertex="1">
                    <mxGeometry x="40" y="150" width="90" height="60" as="geometry"/>
                </mxCell>
                <mxCell id="q4vtd61ncfg4aL-cKjWX-60" value="Action" style="ellipse;whiteSpace=wrap;html=1;" parent="q4vtd61ncfg4aL-cKjWX-5" vertex="1">
                    <mxGeometry x="40" y="270" width="90" height="60" as="geometry"/>
                </mxCell>
                <mxCell id="q4vtd61ncfg4aL-cKjWX-61" value="Old&lt;br&gt;Component" style="ellipse;whiteSpace=wrap;html=1;" parent="q4vtd61ncfg4aL-cKjWX-5" vertex="1">
                    <mxGeometry x="40" y="390" width="90" height="60" as="geometry"/>
                </mxCell>
                <mxCell id="q4vtd61ncfg4aL-cKjWX-62" value="Docfile&lt;br&gt;RMS" style="ellipse;whiteSpace=wrap;html=1;" parent="q4vtd61ncfg4aL-cKjWX-5" vertex="1">
                    <mxGeometry x="40" y="630" width="90" height="60" as="geometry"/>
                </mxCell>
                <mxCell id="q4vtd61ncfg4aL-cKjWX-63" value="ARC&lt;br&gt;Swift" style="ellipse;whiteSpace=wrap;html=1;" parent="q4vtd61ncfg4aL-cKjWX-5" vertex="1">
                    <mxGeometry x="40" y="510" width="90" height="60" as="geometry"/>
                </mxCell>
                <mxCell id="q4vtd61ncfg4aL-cKjWX-64" value="Location&lt;br&gt;RMS" style="ellipse;whiteSpace=wrap;html=1;" parent="q4vtd61ncfg4aL-cKjWX-5" vertex="1">
                    <mxGeometry x="40" y="740" width="90" height="60" as="geometry"/>
                </mxCell>
                <mxCell id="q4vtd61ncfg4aL-cKjWX-65" value="Documentation" style="ellipse;whiteSpace=wrap;html=1;" parent="q4vtd61ncfg4aL-cKjWX-5" vertex="1">
                    <mxGeometry x="40" y="860" width="90" height="60" as="geometry"/>
                </mxCell>
                <mxCell id="q4vtd61ncfg4aL-cKjWX-66" value="Administration" style="ellipse;whiteSpace=wrap;html=1;" parent="q4vtd61ncfg4aL-cKjWX-5" vertex="1">
                    <mxGeometry x="40" y="980" width="90" height="60" as="geometry"/>
                </mxCell>
                <mxCell id="q4vtd61ncfg4aL-cKjWX-70" value="Export" style="ellipse;whiteSpace=wrap;html=1;" parent="q4vtd61ncfg4aL-cKjWX-5" vertex="1">
                    <mxGeometry x="410" y="20" width="75" height="50" as="geometry"/>
                </mxCell>
                <mxCell id="q4vtd61ncfg4aL-cKjWX-68" value="" style="endArrow=none;dashed=1;html=1;exitX=1;exitY=0.5;exitDx=0;exitDy=0;entryX=0;entryY=0.5;entryDx=0;entryDy=0;" parent="q4vtd61ncfg4aL-cKjWX-5" source="q4vtd61ncfg4aL-cKjWX-6" target="q4vtd61ncfg4aL-cKjWX-70" edge="1">
                    <mxGeometry width="50" height="50" relative="1" as="geometry">
                        <mxPoint x="510" y="510" as="sourcePoint"/>
                        <mxPoint x="600" y="510" as="targetPoint"/>
                    </mxGeometry>
                </mxCell>
                <mxCell id="q4vtd61ncfg4aL-cKjWX-69" value="Include" style="edgeLabel;html=1;align=center;verticalAlign=middle;resizable=0;points=[];" parent="q4vtd61ncfg4aL-cKjWX-68" vertex="1" connectable="0">
                    <mxGeometry x="0.057" y="-1" relative="1" as="geometry">
                        <mxPoint as="offset"/>
                    </mxGeometry>
                </mxCell>
                <mxCell id="E0HtxrYOV9ecc11TcIHw-1" value="Move Old&lt;br&gt;Component" style="ellipse;whiteSpace=wrap;html=1;" parent="q4vtd61ncfg4aL-cKjWX-5" vertex="1">
                    <mxGeometry x="370" y="80" width="75" height="50" as="geometry"/>
                </mxCell>
                <mxCell id="E0HtxrYOV9ecc11TcIHw-2" value="" style="endArrow=none;dashed=1;html=1;exitX=1;exitY=0.5;exitDx=0;exitDy=0;entryX=0;entryY=0.5;entryDx=0;entryDy=0;" parent="q4vtd61ncfg4aL-cKjWX-5" source="q4vtd61ncfg4aL-cKjWX-6" target="E0HtxrYOV9ecc11TcIHw-1" edge="1">
                    <mxGeometry width="50" height="50" relative="1" as="geometry">
                        <mxPoint x="435" y="90" as="sourcePoint"/>
                        <mxPoint x="530" y="55" as="targetPoint"/>
                    </mxGeometry>
                </mxCell>
                <mxCell id="E0HtxrYOV9ecc11TcIHw-3" value="Include" style="edgeLabel;html=1;align=center;verticalAlign=middle;resizable=0;points=[];" parent="E0HtxrYOV9ecc11TcIHw-2" vertex="1" connectable="0">
                    <mxGeometry x="0.057" y="-1" relative="1" as="geometry">
                        <mxPoint as="offset"/>
                    </mxGeometry>
                </mxCell>
                <mxCell id="j2eRcDv0MJ3KzvMelL5I-1" value="View" style="ellipse;whiteSpace=wrap;html=1;" parent="q4vtd61ncfg4aL-cKjWX-5" vertex="1">
                    <mxGeometry x="230" y="155" width="75" height="50" as="geometry"/>
                </mxCell>
                <mxCell id="j2eRcDv0MJ3KzvMelL5I-2" value="" style="endArrow=none;dashed=1;html=1;exitX=1;exitY=0.5;exitDx=0;exitDy=0;entryX=0;entryY=0.5;entryDx=0;entryDy=0;" parent="q4vtd61ncfg4aL-cKjWX-5" source="q4vtd61ncfg4aL-cKjWX-59" target="j2eRcDv0MJ3KzvMelL5I-1" edge="1">
                    <mxGeometry width="50" height="50" relative="1" as="geometry">
                        <mxPoint x="260" y="90" as="sourcePoint"/>
                        <mxPoint x="360" y="90" as="targetPoint"/>
                    </mxGeometry>
                </mxCell>
                <mxCell id="j2eRcDv0MJ3KzvMelL5I-3" value="Extends" style="edgeLabel;html=1;align=center;verticalAlign=middle;resizable=0;points=[];" parent="j2eRcDv0MJ3KzvMelL5I-2" vertex="1" connectable="0">
                    <mxGeometry x="-0.078" y="-1" relative="1" as="geometry">
                        <mxPoint as="offset"/>
                    </mxGeometry>
                </mxCell>
                <mxCell id="j2eRcDv0MJ3KzvMelL5I-4" value="Export" style="ellipse;whiteSpace=wrap;html=1;" parent="q4vtd61ncfg4aL-cKjWX-5" vertex="1">
                    <mxGeometry x="410" y="155" width="75" height="50" as="geometry"/>
                </mxCell>
                <mxCell id="j2eRcDv0MJ3KzvMelL5I-5" value="" style="endArrow=none;dashed=1;html=1;exitX=1;exitY=0.5;exitDx=0;exitDy=0;entryX=0;entryY=0.5;entryDx=0;entryDy=0;" parent="q4vtd61ncfg4aL-cKjWX-5" source="j2eRcDv0MJ3KzvMelL5I-1" target="j2eRcDv0MJ3KzvMelL5I-4" edge="1">
                    <mxGeometry width="50" height="50" relative="1" as="geometry">
                        <mxPoint x="435" y="90" as="sourcePoint"/>
                        <mxPoint x="540" y="65" as="targetPoint"/>
                    </mxGeometry>
                </mxCell>
                <mxCell id="j2eRcDv0MJ3KzvMelL5I-6" value="Include" style="edgeLabel;html=1;align=center;verticalAlign=middle;resizable=0;points=[];" parent="j2eRcDv0MJ3KzvMelL5I-5" vertex="1" connectable="0">
                    <mxGeometry x="0.057" y="-1" relative="1" as="geometry">
                        <mxPoint as="offset"/>
                    </mxGeometry>
                </mxCell>
                <mxCell id="j2eRcDv0MJ3KzvMelL5I-7" value="Export" style="ellipse;whiteSpace=wrap;html=1;" parent="q4vtd61ncfg4aL-cKjWX-5" vertex="1">
                    <mxGeometry x="230" y="320" width="75" height="50" as="geometry"/>
                </mxCell>
                <mxCell id="j2eRcDv0MJ3KzvMelL5I-8" value="" style="endArrow=none;dashed=1;html=1;exitX=1;exitY=0.5;exitDx=0;exitDy=0;entryX=0;entryY=0.5;entryDx=0;entryDy=0;" parent="q4vtd61ncfg4aL-cKjWX-5" source="q4vtd61ncfg4aL-cKjWX-60" target="q4vtd61ncfg4aL-cKjWX-19" edge="1">
                    <mxGeometry width="50" height="50" relative="1" as="geometry">
                        <mxPoint x="260" y="200" as="sourcePoint"/>
                        <mxPoint x="360" y="200" as="targetPoint"/>
                    </mxGeometry>
                </mxCell>
                <mxCell id="j2eRcDv0MJ3KzvMelL5I-9" value="Extends" style="edgeLabel;html=1;align=center;verticalAlign=middle;resizable=0;points=[];" parent="j2eRcDv0MJ3KzvMelL5I-8" vertex="1" connectable="0">
                    <mxGeometry x="-0.078" y="-1" relative="1" as="geometry">
                        <mxPoint as="offset"/>
                    </mxGeometry>
                </mxCell>
                <mxCell id="j2eRcDv0MJ3KzvMelL5I-12" value="" style="endArrow=none;dashed=1;html=1;exitX=1;exitY=0.5;exitDx=0;exitDy=0;entryX=0;entryY=0.5;entryDx=0;entryDy=0;" parent="q4vtd61ncfg4aL-cKjWX-5" source="q4vtd61ncfg4aL-cKjWX-60" target="j2eRcDv0MJ3KzvMelL5I-7" edge="1">
                    <mxGeometry width="50" height="50" relative="1" as="geometry">
                        <mxPoint x="260" y="320" as="sourcePoint"/>
                        <mxPoint x="360" y="277" as="targetPoint"/>
                    </mxGeometry>
                </mxCell>
                <mxCell id="j2eRcDv0MJ3KzvMelL5I-13" value="Extends" style="edgeLabel;html=1;align=center;verticalAlign=middle;resizable=0;points=[];" parent="j2eRcDv0MJ3KzvMelL5I-12" vertex="1" connectable="0">
                    <mxGeometry x="-0.078" y="-1" relative="1" as="geometry">
                        <mxPoint as="offset"/>
                    </mxGeometry>
                </mxCell>
                <mxCell id="j2eRcDv0MJ3KzvMelL5I-14" value="" style="endArrow=none;dashed=1;html=1;exitX=1;exitY=0.5;exitDx=0;exitDy=0;entryX=0;entryY=0.5;entryDx=0;entryDy=0;" parent="q4vtd61ncfg4aL-cKjWX-5" source="q4vtd61ncfg4aL-cKjWX-61" target="j2eRcDv0MJ3KzvMelL5I-16" edge="1">
                    <mxGeometry width="50" height="50" relative="1" as="geometry">
                        <mxPoint x="250" y="425" as="sourcePoint"/>
                        <mxPoint x="257.57359312880726" y="646.7157287525381" as="targetPoint"/>
                    </mxGeometry>
                </mxCell>
                <mxCell id="j2eRcDv0MJ3KzvMelL5I-15" value="Extends" style="edgeLabel;html=1;align=center;verticalAlign=middle;resizable=0;points=[];" parent="j2eRcDv0MJ3KzvMelL5I-14" vertex="1" connectable="0">
                    <mxGeometry x="-0.078" y="-1" relative="1" as="geometry">
                        <mxPoint as="offset"/>
                    </mxGeometry>
                </mxCell>
                <mxCell id="j2eRcDv0MJ3KzvMelL5I-16" value="View" style="ellipse;whiteSpace=wrap;html=1;" parent="q4vtd61ncfg4aL-cKjWX-5" vertex="1">
                    <mxGeometry x="230" y="396" width="75" height="50" as="geometry"/>
                </mxCell>
                <mxCell id="j2eRcDv0MJ3KzvMelL5I-17" value="" style="endArrow=none;dashed=1;html=1;exitX=1;exitY=0.5;exitDx=0;exitDy=0;entryX=0;entryY=0.5;entryDx=0;entryDy=0;" parent="q4vtd61ncfg4aL-cKjWX-5" source="j2eRcDv0MJ3KzvMelL5I-16" target="j2eRcDv0MJ3KzvMelL5I-21" edge="1">
                    <mxGeometry width="50" height="50" relative="1" as="geometry">
                        <mxPoint x="435" y="435" as="sourcePoint"/>
                        <mxPoint x="530" y="400" as="targetPoint"/>
                    </mxGeometry>
                </mxCell>
                <mxCell id="j2eRcDv0MJ3KzvMelL5I-18" value="Include" style="edgeLabel;html=1;align=center;verticalAlign=middle;resizable=0;points=[];" parent="j2eRcDv0MJ3KzvMelL5I-17" vertex="1" connectable="0">
                    <mxGeometry x="0.057" y="-1" relative="1" as="geometry">
                        <mxPoint as="offset"/>
                    </mxGeometry>
                </mxCell>
                <mxCell id="j2eRcDv0MJ3KzvMelL5I-19" value="" style="endArrow=none;dashed=1;html=1;exitX=1;exitY=0.5;exitDx=0;exitDy=0;entryX=0;entryY=0.5;entryDx=0;entryDy=0;" parent="q4vtd61ncfg4aL-cKjWX-5" source="j2eRcDv0MJ3KzvMelL5I-16" target="j2eRcDv0MJ3KzvMelL5I-22" edge="1">
                    <mxGeometry width="50" height="50" relative="1" as="geometry">
                        <mxPoint x="510" y="855" as="sourcePoint"/>
                        <mxPoint x="600" y="855" as="targetPoint"/>
                    </mxGeometry>
                </mxCell>
                <mxCell id="j2eRcDv0MJ3KzvMelL5I-20" value="Include" style="edgeLabel;html=1;align=center;verticalAlign=middle;resizable=0;points=[];" parent="j2eRcDv0MJ3KzvMelL5I-19" vertex="1" connectable="0">
                    <mxGeometry x="0.057" y="-1" relative="1" as="geometry">
                        <mxPoint as="offset"/>
                    </mxGeometry>
                </mxCell>
                <mxCell id="j2eRcDv0MJ3KzvMelL5I-21" value="Move New&lt;br&gt;Component" style="ellipse;whiteSpace=wrap;html=1;" parent="q4vtd61ncfg4aL-cKjWX-5" vertex="1">
                    <mxGeometry x="370" y="431" width="75" height="50" as="geometry"/>
                </mxCell>
                <mxCell id="j2eRcDv0MJ3KzvMelL5I-22" value="Export" style="ellipse;whiteSpace=wrap;html=1;" parent="q4vtd61ncfg4aL-cKjWX-5" vertex="1">
                    <mxGeometry x="410" y="371" width="75" height="50" as="geometry"/>
                </mxCell>
                <mxCell id="j2eRcDv0MJ3KzvMelL5I-23" value="Export" style="ellipse;whiteSpace=wrap;html=1;" parent="q4vtd61ncfg4aL-cKjWX-5" vertex="1">
                    <mxGeometry x="230" y="559" width="75" height="50" as="geometry"/>
                </mxCell>
                <mxCell id="j2eRcDv0MJ3KzvMelL5I-24" value="CRUD&lt;br&gt;Data" style="ellipse;whiteSpace=wrap;html=1;" parent="q4vtd61ncfg4aL-cKjWX-5" vertex="1">
                    <mxGeometry x="230" y="471" width="75" height="50" as="geometry"/>
                </mxCell>
                <mxCell id="j2eRcDv0MJ3KzvMelL5I-25" value="" style="endArrow=none;dashed=1;html=1;entryX=0;entryY=0.5;entryDx=0;entryDy=0;" parent="q4vtd61ncfg4aL-cKjWX-5" target="j2eRcDv0MJ3KzvMelL5I-24" edge="1">
                    <mxGeometry width="50" height="50" relative="1" as="geometry">
                        <mxPoint x="130" y="540" as="sourcePoint"/>
                        <mxPoint x="360" y="439" as="targetPoint"/>
                    </mxGeometry>
                </mxCell>
                <mxCell id="j2eRcDv0MJ3KzvMelL5I-26" value="Extends" style="edgeLabel;html=1;align=center;verticalAlign=middle;resizable=0;points=[];" parent="j2eRcDv0MJ3KzvMelL5I-25" vertex="1" connectable="0">
                    <mxGeometry x="-0.078" y="-1" relative="1" as="geometry">
                        <mxPoint as="offset"/>
                    </mxGeometry>
                </mxCell>
                <mxCell id="j2eRcDv0MJ3KzvMelL5I-27" value="" style="endArrow=none;dashed=1;html=1;exitX=1;exitY=0.5;exitDx=0;exitDy=0;entryX=0;entryY=0.5;entryDx=0;entryDy=0;" parent="q4vtd61ncfg4aL-cKjWX-5" source="q4vtd61ncfg4aL-cKjWX-63" target="j2eRcDv0MJ3KzvMelL5I-23" edge="1">
                    <mxGeometry width="50" height="50" relative="1" as="geometry">
                        <mxPoint x="250" y="549" as="sourcePoint"/>
                        <mxPoint x="360" y="516" as="targetPoint"/>
                    </mxGeometry>
                </mxCell>
                <mxCell id="j2eRcDv0MJ3KzvMelL5I-28" value="Extends" style="edgeLabel;html=1;align=center;verticalAlign=middle;resizable=0;points=[];" parent="j2eRcDv0MJ3KzvMelL5I-27" vertex="1" connectable="0">
                    <mxGeometry x="-0.078" y="-1" relative="1" as="geometry">
                        <mxPoint as="offset"/>
                    </mxGeometry>
                </mxCell>
                <mxCell id="j2eRcDv0MJ3KzvMelL5I-29" value="" style="endArrow=none;dashed=1;html=1;exitX=1;exitY=0.5;exitDx=0;exitDy=0;entryX=0;entryY=0.5;entryDx=0;entryDy=0;" parent="q4vtd61ncfg4aL-cKjWX-5" source="q4vtd61ncfg4aL-cKjWX-62" target="j2eRcDv0MJ3KzvMelL5I-33" edge="1">
                    <mxGeometry width="50" height="50" relative="1" as="geometry">
                        <mxPoint x="249.9999999999984" y="669" as="sourcePoint"/>
                        <mxPoint x="257.57359312880726" y="890.7157287525381" as="targetPoint"/>
                    </mxGeometry>
                </mxCell>
                <mxCell id="j2eRcDv0MJ3KzvMelL5I-30" value="Extends" style="edgeLabel;html=1;align=center;verticalAlign=middle;resizable=0;points=[];" parent="j2eRcDv0MJ3KzvMelL5I-29" vertex="1" connectable="0">
                    <mxGeometry x="-0.078" y="-1" relative="1" as="geometry">
                        <mxPoint as="offset"/>
                    </mxGeometry>
                </mxCell>
                <mxCell id="j2eRcDv0MJ3KzvMelL5I-31" value="" style="endArrow=none;dashed=1;html=1;exitX=1;exitY=0.5;exitDx=0;exitDy=0;entryX=0;entryY=0.5;entryDx=0;entryDy=0;" parent="q4vtd61ncfg4aL-cKjWX-5" source="j2eRcDv0MJ3KzvMelL5I-33" target="j2eRcDv0MJ3KzvMelL5I-37" edge="1">
                    <mxGeometry width="50" height="50" relative="1" as="geometry">
                        <mxPoint x="435" y="679" as="sourcePoint"/>
                        <mxPoint x="530" y="644" as="targetPoint"/>
                    </mxGeometry>
                </mxCell>
                <mxCell id="j2eRcDv0MJ3KzvMelL5I-32" value="Include" style="edgeLabel;html=1;align=center;verticalAlign=middle;resizable=0;points=[];" parent="j2eRcDv0MJ3KzvMelL5I-31" vertex="1" connectable="0">
                    <mxGeometry x="0.057" y="-1" relative="1" as="geometry">
                        <mxPoint as="offset"/>
                    </mxGeometry>
                </mxCell>
                <mxCell id="j2eRcDv0MJ3KzvMelL5I-33" value="View" style="ellipse;whiteSpace=wrap;html=1;" parent="q4vtd61ncfg4aL-cKjWX-5" vertex="1">
                    <mxGeometry x="230" y="634" width="75" height="50" as="geometry"/>
                </mxCell>
                <mxCell id="j2eRcDv0MJ3KzvMelL5I-34" value="" style="endArrow=none;dashed=1;html=1;exitX=1;exitY=0.5;exitDx=0;exitDy=0;entryX=0;entryY=0.5;entryDx=0;entryDy=0;" parent="q4vtd61ncfg4aL-cKjWX-5" source="j2eRcDv0MJ3KzvMelL5I-33" target="j2eRcDv0MJ3KzvMelL5I-36" edge="1">
                    <mxGeometry width="50" height="50" relative="1" as="geometry">
                        <mxPoint x="510" y="1099" as="sourcePoint"/>
                        <mxPoint x="600" y="1099" as="targetPoint"/>
                    </mxGeometry>
                </mxCell>
                <mxCell id="j2eRcDv0MJ3KzvMelL5I-35" value="Include" style="edgeLabel;html=1;align=center;verticalAlign=middle;resizable=0;points=[];" parent="j2eRcDv0MJ3KzvMelL5I-34" vertex="1" connectable="0">
                    <mxGeometry x="0.057" y="-1" relative="1" as="geometry">
                        <mxPoint as="offset"/>
                    </mxGeometry>
                </mxCell>
                <mxCell id="j2eRcDv0MJ3KzvMelL5I-36" value="Export" style="ellipse;whiteSpace=wrap;html=1;" parent="q4vtd61ncfg4aL-cKjWX-5" vertex="1">
                    <mxGeometry x="410" y="609" width="75" height="50" as="geometry"/>
                </mxCell>
                <mxCell id="j2eRcDv0MJ3KzvMelL5I-37" value="Add Data" style="ellipse;whiteSpace=wrap;html=1;" parent="q4vtd61ncfg4aL-cKjWX-5" vertex="1">
                    <mxGeometry x="370" y="669" width="75" height="50" as="geometry"/>
                </mxCell>
                <mxCell id="j2eRcDv0MJ3KzvMelL5I-38" value="Export" style="ellipse;whiteSpace=wrap;html=1;" parent="q4vtd61ncfg4aL-cKjWX-5" vertex="1">
                    <mxGeometry x="230" y="789" width="75" height="50" as="geometry"/>
                </mxCell>
                <mxCell id="j2eRcDv0MJ3KzvMelL5I-39" value="CRUD&lt;br&gt;Data" style="ellipse;whiteSpace=wrap;html=1;" parent="q4vtd61ncfg4aL-cKjWX-5" vertex="1">
                    <mxGeometry x="230" y="701" width="75" height="50" as="geometry"/>
                </mxCell>
                <mxCell id="j2eRcDv0MJ3KzvMelL5I-40" value="" style="endArrow=none;dashed=1;html=1;entryX=0;entryY=0.5;entryDx=0;entryDy=0;" parent="q4vtd61ncfg4aL-cKjWX-5" target="j2eRcDv0MJ3KzvMelL5I-39" edge="1">
                    <mxGeometry width="50" height="50" relative="1" as="geometry">
                        <mxPoint x="130" y="770" as="sourcePoint"/>
                        <mxPoint x="360" y="669" as="targetPoint"/>
                    </mxGeometry>
                </mxCell>
                <mxCell id="j2eRcDv0MJ3KzvMelL5I-41" value="Extends" style="edgeLabel;html=1;align=center;verticalAlign=middle;resizable=0;points=[];" parent="j2eRcDv0MJ3KzvMelL5I-40" vertex="1" connectable="0">
                    <mxGeometry x="-0.078" y="-1" relative="1" as="geometry">
                        <mxPoint as="offset"/>
                    </mxGeometry>
                </mxCell>
                <mxCell id="j2eRcDv0MJ3KzvMelL5I-42" value="" style="endArrow=none;dashed=1;html=1;exitX=1;exitY=0.5;exitDx=0;exitDy=0;entryX=0;entryY=0.5;entryDx=0;entryDy=0;" parent="q4vtd61ncfg4aL-cKjWX-5" source="q4vtd61ncfg4aL-cKjWX-64" target="j2eRcDv0MJ3KzvMelL5I-38" edge="1">
                    <mxGeometry width="50" height="50" relative="1" as="geometry">
                        <mxPoint x="249.9999999999984" y="779" as="sourcePoint"/>
                        <mxPoint x="360" y="746" as="targetPoint"/>
                    </mxGeometry>
                </mxCell>
                <mxCell id="j2eRcDv0MJ3KzvMelL5I-43" value="Extends" style="edgeLabel;html=1;align=center;verticalAlign=middle;resizable=0;points=[];" parent="j2eRcDv0MJ3KzvMelL5I-42" vertex="1" connectable="0">
                    <mxGeometry x="-0.078" y="-1" relative="1" as="geometry">
                        <mxPoint as="offset"/>
                    </mxGeometry>
                </mxCell>
                <mxCell id="j2eRcDv0MJ3KzvMelL5I-44" value="View" style="ellipse;whiteSpace=wrap;html=1;" parent="q4vtd61ncfg4aL-cKjWX-5" vertex="1">
                    <mxGeometry x="230" y="865" width="75" height="50" as="geometry"/>
                </mxCell>
                <mxCell id="j2eRcDv0MJ3KzvMelL5I-45" value="" style="endArrow=none;dashed=1;html=1;exitX=1;exitY=0.5;exitDx=0;exitDy=0;entryX=0;entryY=0.5;entryDx=0;entryDy=0;" parent="q4vtd61ncfg4aL-cKjWX-5" source="q4vtd61ncfg4aL-cKjWX-65" target="j2eRcDv0MJ3KzvMelL5I-44" edge="1">
                    <mxGeometry width="50" height="50" relative="1" as="geometry">
                        <mxPoint x="249.9999999999984" y="901" as="sourcePoint"/>
                        <mxPoint x="257.57359312880726" y="1121.715728752538" as="targetPoint"/>
                    </mxGeometry>
                </mxCell>
                <mxCell id="j2eRcDv0MJ3KzvMelL5I-46" value="Extends" style="edgeLabel;html=1;align=center;verticalAlign=middle;resizable=0;points=[];" parent="j2eRcDv0MJ3KzvMelL5I-45" vertex="1" connectable="0">
                    <mxGeometry x="-0.078" y="-1" relative="1" as="geometry">
                        <mxPoint as="offset"/>
                    </mxGeometry>
                </mxCell>
                <mxCell id="j2eRcDv0MJ3KzvMelL5I-47" value="Export" style="ellipse;whiteSpace=wrap;html=1;" parent="q4vtd61ncfg4aL-cKjWX-5" vertex="1">
                    <mxGeometry x="335" y="1018" width="75" height="50" as="geometry"/>
                </mxCell>
                <mxCell id="j2eRcDv0MJ3KzvMelL5I-48" value="CRUD&lt;br&gt;Data" style="ellipse;whiteSpace=wrap;html=1;" parent="q4vtd61ncfg4aL-cKjWX-5" vertex="1">
                    <mxGeometry x="335" y="930" width="75" height="50" as="geometry"/>
                </mxCell>
                <mxCell id="j2eRcDv0MJ3KzvMelL5I-49" value="" style="endArrow=none;dashed=1;html=1;entryX=0;entryY=0.5;entryDx=0;entryDy=0;" parent="q4vtd61ncfg4aL-cKjWX-5" target="j2eRcDv0MJ3KzvMelL5I-48" edge="1">
                    <mxGeometry width="50" height="50" relative="1" as="geometry">
                        <mxPoint x="130" y="1010" as="sourcePoint"/>
                        <mxPoint x="465" y="898" as="targetPoint"/>
                    </mxGeometry>
                </mxCell>
                <mxCell id="j2eRcDv0MJ3KzvMelL5I-50" value="Extends" style="edgeLabel;html=1;align=center;verticalAlign=middle;resizable=0;points=[];" parent="j2eRcDv0MJ3KzvMelL5I-49" vertex="1" connectable="0">
                    <mxGeometry x="-0.078" y="-1" relative="1" as="geometry">
                        <mxPoint as="offset"/>
                    </mxGeometry>
                </mxCell>
                <mxCell id="j2eRcDv0MJ3KzvMelL5I-51" value="" style="endArrow=none;dashed=1;html=1;exitX=1;exitY=0.5;exitDx=0;exitDy=0;entryX=0;entryY=0.5;entryDx=0;entryDy=0;" parent="q4vtd61ncfg4aL-cKjWX-5" source="q4vtd61ncfg4aL-cKjWX-66" target="j2eRcDv0MJ3KzvMelL5I-47" edge="1">
                    <mxGeometry width="50" height="50" relative="1" as="geometry">
                        <mxPoint x="354.9999999999984" y="1009" as="sourcePoint"/>
                        <mxPoint x="465" y="975" as="targetPoint"/>
                    </mxGeometry>
                </mxCell>
                <mxCell id="j2eRcDv0MJ3KzvMelL5I-52" value="Extends" style="edgeLabel;html=1;align=center;verticalAlign=middle;resizable=0;points=[];" parent="j2eRcDv0MJ3KzvMelL5I-51" vertex="1" connectable="0">
                    <mxGeometry x="-0.078" y="-1" relative="1" as="geometry">
                        <mxPoint as="offset"/>
                    </mxGeometry>
                </mxCell>
                <mxCell id="q4vtd61ncfg4aL-cKjWX-43" value="" style="endArrow=none;dashed=1;html=1;exitX=1;exitY=0.5;exitDx=0;exitDy=0;entryX=0;entryY=0.5;entryDx=0;entryDy=0;" parent="1" source="q4vtd61ncfg4aL-cKjWX-5" target="q4vtd61ncfg4aL-cKjWX-67" edge="1">
                    <mxGeometry width="50" height="50" relative="1" as="geometry">
                        <mxPoint x="560" y="320" as="sourcePoint"/>
                        <mxPoint x="590" y="415" as="targetPoint"/>
                    </mxGeometry>
                </mxCell>
                <mxCell id="q4vtd61ncfg4aL-cKjWX-44" value="Include" style="edgeLabel;html=1;align=center;verticalAlign=middle;resizable=0;points=[];" parent="q4vtd61ncfg4aL-cKjWX-43" vertex="1" connectable="0">
                    <mxGeometry x="0.057" y="-1" relative="1" as="geometry">
                        <mxPoint as="offset"/>
                    </mxGeometry>
                </mxCell>
                <mxCell id="q4vtd61ncfg4aL-cKjWX-72" style="edgeStyle=none;html=1;entryX=0;entryY=0.5;entryDx=0;entryDy=0;" parent="1" source="q4vtd61ncfg4aL-cKjWX-49" target="q4vtd61ncfg4aL-cKjWX-9" edge="1">
                    <mxGeometry relative="1" as="geometry"/>
                </mxCell>
                <mxCell id="j2eRcDv0MJ3KzvMelL5I-53" style="edgeStyle=none;html=1;entryX=0;entryY=0.5;entryDx=0;entryDy=0;" parent="1" source="q4vtd61ncfg4aL-cKjWX-49" target="q4vtd61ncfg4aL-cKjWX-59" edge="1">
                    <mxGeometry relative="1" as="geometry"/>
                </mxCell>
                <mxCell id="j2eRcDv0MJ3KzvMelL5I-54" style="edgeStyle=none;html=1;entryX=0;entryY=0.5;entryDx=0;entryDy=0;" parent="1" source="q4vtd61ncfg4aL-cKjWX-49" target="q4vtd61ncfg4aL-cKjWX-60" edge="1">
                    <mxGeometry relative="1" as="geometry"/>
                </mxCell>
                <mxCell id="j2eRcDv0MJ3KzvMelL5I-55" style="edgeStyle=none;html=1;entryX=0;entryY=0.5;entryDx=0;entryDy=0;" parent="1" source="q4vtd61ncfg4aL-cKjWX-49" target="q4vtd61ncfg4aL-cKjWX-61" edge="1">
                    <mxGeometry relative="1" as="geometry"/>
                </mxCell>
                <mxCell id="j2eRcDv0MJ3KzvMelL5I-56" style="edgeStyle=none;html=1;entryX=0;entryY=0.5;entryDx=0;entryDy=0;" parent="1" source="q4vtd61ncfg4aL-cKjWX-49" target="q4vtd61ncfg4aL-cKjWX-63" edge="1">
                    <mxGeometry relative="1" as="geometry"/>
                </mxCell>
                <mxCell id="j2eRcDv0MJ3KzvMelL5I-57" style="edgeStyle=none;html=1;entryX=0;entryY=0.5;entryDx=0;entryDy=0;" parent="1" source="q4vtd61ncfg4aL-cKjWX-49" target="q4vtd61ncfg4aL-cKjWX-62" edge="1">
                    <mxGeometry relative="1" as="geometry"/>
                </mxCell>
                <mxCell id="j2eRcDv0MJ3KzvMelL5I-58" style="edgeStyle=none;html=1;entryX=0;entryY=0.5;entryDx=0;entryDy=0;" parent="1" source="q4vtd61ncfg4aL-cKjWX-49" target="q4vtd61ncfg4aL-cKjWX-64" edge="1">
                    <mxGeometry relative="1" as="geometry"/>
                </mxCell>
                <mxCell id="j2eRcDv0MJ3KzvMelL5I-59" style="edgeStyle=none;html=1;entryX=0;entryY=0.5;entryDx=0;entryDy=0;" parent="1" source="q4vtd61ncfg4aL-cKjWX-49" target="q4vtd61ncfg4aL-cKjWX-65" edge="1">
                    <mxGeometry relative="1" as="geometry"/>
                </mxCell>
                <mxCell id="j2eRcDv0MJ3KzvMelL5I-60" style="edgeStyle=none;html=1;entryX=0;entryY=0.5;entryDx=0;entryDy=0;" parent="1" source="q4vtd61ncfg4aL-cKjWX-49" target="q4vtd61ncfg4aL-cKjWX-66" edge="1">
                    <mxGeometry relative="1" as="geometry"/>
                </mxCell>
                <mxCell id="q4vtd61ncfg4aL-cKjWX-49" value="Admin" style="shape=umlActor;verticalLabelPosition=bottom;verticalAlign=top;html=1;outlineConnect=0;" parent="1" vertex="1">
                    <mxGeometry x="40" y="570" width="30" height="60" as="geometry"/>
                </mxCell>
                <mxCell id="q4vtd61ncfg4aL-cKjWX-67" value="Login" style="ellipse;whiteSpace=wrap;html=1;" parent="1" vertex="1">
                    <mxGeometry x="710" y="520" width="90" height="60" as="geometry"/>
                </mxCell>
            </root>
        </mxGraphModel>
    </diagram>
    <diagram id="kpt7rW8SNPyxf4nzxVH6" name="Page-1">
        <mxGraphModel dx="1500" dy="1575" grid="1" gridSize="10" guides="1" tooltips="1" connect="1" arrows="1" fold="1" page="1" pageScale="1" pageWidth="850" pageHeight="1100" math="0" shadow="0">
            <root>
                <mxCell id="0"/>
                <mxCell id="1" parent="0"/>
                <mxCell id="4" value="" style="rounded=0;whiteSpace=wrap;html=1;" parent="1" vertex="1">
                    <mxGeometry x="100" y="-400" width="730" height="1070" as="geometry"/>
                </mxCell>
                <mxCell id="12" style="edgeStyle=none;html=1;entryX=0;entryY=0.5;entryDx=0;entryDy=0;exitX=1;exitY=0.3333333333333333;exitDx=0;exitDy=0;exitPerimeter=0;endArrow=none;endFill=0;" parent="1" source="2" target="11" edge="1">
                    <mxGeometry relative="1" as="geometry"/>
                </mxCell>
                <mxCell id="13" style="edgeStyle=none;html=1;exitX=1;exitY=0.3333333333333333;exitDx=0;exitDy=0;exitPerimeter=0;entryX=0;entryY=0.5;entryDx=0;entryDy=0;endArrow=none;endFill=0;" parent="1" source="2" target="10" edge="1">
                    <mxGeometry relative="1" as="geometry"/>
                </mxCell>
                <mxCell id="94" style="edgeStyle=none;html=1;exitX=1;exitY=0.3333333333333333;exitDx=0;exitDy=0;exitPerimeter=0;fontSize=18;startArrow=none;startFill=0;endArrow=none;endFill=0;" parent="1" source="2" target="93" edge="1">
                    <mxGeometry relative="1" as="geometry">
                        <Array as="points">
                            <mxPoint x="270" y="280"/>
                        </Array>
                    </mxGeometry>
                </mxCell>
                <mxCell id="2" value="Admin&lt;br&gt;" style="shape=umlActor;verticalLabelPosition=bottom;verticalAlign=top;html=1;outlineConnect=0;" parent="1" vertex="1">
                    <mxGeometry x="30" y="100" width="30" height="60" as="geometry"/>
                </mxCell>
                <mxCell id="74" style="edgeStyle=none;html=1;exitX=0;exitY=0.3333333333333333;exitDx=0;exitDy=0;exitPerimeter=0;startArrow=none;startFill=0;endArrow=none;endFill=0;" parent="1" source="3" target="11" edge="1">
                    <mxGeometry relative="1" as="geometry"/>
                </mxCell>
                <mxCell id="75" style="edgeStyle=none;html=1;exitX=0;exitY=0.3333333333333333;exitDx=0;exitDy=0;exitPerimeter=0;startArrow=none;startFill=0;endArrow=none;endFill=0;entryX=1;entryY=0.5;entryDx=0;entryDy=0;" parent="1" source="3" target="76" edge="1">
                    <mxGeometry relative="1" as="geometry"/>
                </mxCell>
                <mxCell id="84" style="edgeStyle=none;html=1;exitX=0;exitY=0.3333333333333333;exitDx=0;exitDy=0;exitPerimeter=0;entryX=1;entryY=0.5;entryDx=0;entryDy=0;startArrow=none;startFill=0;endArrow=none;endFill=0;" parent="1" source="3" target="83" edge="1">
                    <mxGeometry relative="1" as="geometry"/>
                </mxCell>
                <mxCell id="91" style="edgeStyle=none;html=1;exitX=0;exitY=0.3333333333333333;exitDx=0;exitDy=0;exitPerimeter=0;entryX=0.917;entryY=0.375;entryDx=0;entryDy=0;entryPerimeter=0;startArrow=none;startFill=0;endArrow=none;endFill=0;" parent="1" source="3" target="8" edge="1">
                    <mxGeometry relative="1" as="geometry"/>
                </mxCell>
                <mxCell id="95" style="edgeStyle=none;html=1;exitX=0;exitY=0.3333333333333333;exitDx=0;exitDy=0;exitPerimeter=0;fontSize=18;startArrow=none;startFill=0;endArrow=none;endFill=0;" parent="1" source="3" target="93" edge="1">
                    <mxGeometry relative="1" as="geometry">
                        <Array as="points">
                            <mxPoint x="750" y="300"/>
                        </Array>
                    </mxGeometry>
                </mxCell>
                <mxCell id="3" value="Guest" style="shape=umlActor;verticalLabelPosition=bottom;verticalAlign=top;html=1;outlineConnect=0;" parent="1" vertex="1">
                    <mxGeometry x="890" y="-80" width="30" height="60" as="geometry"/>
                </mxCell>
                <mxCell id="14" style="edgeStyle=none;html=1;exitX=0;exitY=0.5;exitDx=0;exitDy=0;endArrow=none;endFill=0;" parent="1" source="5" edge="1">
                    <mxGeometry relative="1" as="geometry">
                        <mxPoint x="59.99999999999977" y="120" as="targetPoint"/>
                    </mxGeometry>
                </mxCell>
                <mxCell id="54" style="edgeStyle=none;html=1;dashed=1;startArrow=none;startFill=0;endArrow=classic;endFill=1;" parent="1" source="5" target="53" edge="1">
                    <mxGeometry relative="1" as="geometry"/>
                </mxCell>
                <mxCell id="58" value="&amp;lt;extend&amp;gt;" style="edgeLabel;html=1;align=center;verticalAlign=middle;resizable=0;points=[];" parent="54" vertex="1" connectable="0">
                    <mxGeometry x="-0.2797" y="-2" relative="1" as="geometry">
                        <mxPoint x="3" as="offset"/>
                    </mxGeometry>
                </mxCell>
                <mxCell id="5" value="Mengelola&amp;nbsp;&lt;br&gt;Administration" style="ellipse;whiteSpace=wrap;html=1;" parent="1" vertex="1">
                    <mxGeometry x="160" y="440" width="120" height="80" as="geometry"/>
                </mxCell>
                <mxCell id="15" style="edgeStyle=none;html=1;exitX=0;exitY=0.5;exitDx=0;exitDy=0;endArrow=none;endFill=0;" parent="1" source="6" edge="1">
                    <mxGeometry relative="1" as="geometry">
                        <mxPoint x="59.99999999999977" y="120" as="targetPoint"/>
                    </mxGeometry>
                </mxCell>
                <mxCell id="51" style="edgeStyle=none;html=1;dashed=1;startArrow=none;startFill=0;endArrow=classic;endFill=1;" parent="1" source="6" target="47" edge="1">
                    <mxGeometry relative="1" as="geometry"/>
                </mxCell>
                <mxCell id="52" value="&amp;lt;extend&amp;gt;" style="edgeLabel;html=1;align=center;verticalAlign=middle;resizable=0;points=[];" parent="51" vertex="1" connectable="0">
                    <mxGeometry x="-0.6302" y="2" relative="1" as="geometry">
                        <mxPoint x="19" y="1" as="offset"/>
                    </mxGeometry>
                </mxCell>
                <mxCell id="6" value="Mengelola&amp;nbsp;&lt;br&gt;&lt;span&gt;Analytics&lt;/span&gt;" style="ellipse;whiteSpace=wrap;html=1;" parent="1" vertex="1">
                    <mxGeometry x="170" width="120" height="80" as="geometry"/>
                </mxCell>
                <mxCell id="16" style="edgeStyle=none;html=1;exitX=0;exitY=0.5;exitDx=0;exitDy=0;endArrow=none;endFill=0;" parent="1" source="7" edge="1">
                    <mxGeometry relative="1" as="geometry">
                        <mxPoint x="59.99999999999977" y="120" as="targetPoint"/>
                    </mxGeometry>
                </mxCell>
                <mxCell id="66" style="edgeStyle=none;html=1;dashed=1;startArrow=none;startFill=0;endArrow=classic;endFill=1;" parent="1" source="7" target="62" edge="1">
                    <mxGeometry relative="1" as="geometry"/>
                </mxCell>
                <mxCell id="67" value="&amp;lt;extend&amp;gt;" style="edgeLabel;html=1;align=center;verticalAlign=middle;resizable=0;points=[];" parent="66" vertex="1" connectable="0">
                    <mxGeometry x="-0.4345" relative="1" as="geometry">
                        <mxPoint x="10" as="offset"/>
                    </mxGeometry>
                </mxCell>
                <mxCell id="7" value="Mengelola&amp;nbsp;&lt;br&gt;&lt;span&gt;Action&lt;/span&gt;" style="ellipse;whiteSpace=wrap;html=1;" parent="1" vertex="1">
                    <mxGeometry x="140" y="100" width="120" height="80" as="geometry"/>
                </mxCell>
                <mxCell id="17" style="edgeStyle=none;html=1;exitX=0;exitY=0.5;exitDx=0;exitDy=0;endArrow=none;endFill=0;" parent="1" source="8" edge="1">
                    <mxGeometry relative="1" as="geometry">
                        <mxPoint x="59.99999999999977" y="120" as="targetPoint"/>
                    </mxGeometry>
                </mxCell>
                <mxCell id="8" value="Mengelola&amp;nbsp;&lt;br&gt;&lt;span&gt;Documentation&lt;/span&gt;" style="ellipse;whiteSpace=wrap;html=1;" parent="1" vertex="1">
                    <mxGeometry x="180" y="-340" width="120" height="80" as="geometry"/>
                </mxCell>
                <mxCell id="18" style="edgeStyle=none;html=1;exitX=0;exitY=0.5;exitDx=0;exitDy=0;endArrow=none;endFill=0;" parent="1" source="9" edge="1">
                    <mxGeometry relative="1" as="geometry">
                        <mxPoint x="59.99999999999977" y="120" as="targetPoint"/>
                    </mxGeometry>
                </mxCell>
                <mxCell id="69" style="edgeStyle=none;html=1;dashed=1;startArrow=none;startFill=0;endArrow=classic;endFill=1;" parent="1" source="9" target="68" edge="1">
                    <mxGeometry relative="1" as="geometry"/>
                </mxCell>
                <mxCell id="73" value="&amp;lt;extend&amp;gt;" style="edgeLabel;html=1;align=center;verticalAlign=middle;resizable=0;points=[];" parent="69" vertex="1" connectable="0">
                    <mxGeometry x="-0.5833" y="1" relative="1" as="geometry">
                        <mxPoint x="15" as="offset"/>
                    </mxGeometry>
                </mxCell>
                <mxCell id="9" value="Mengelola&amp;nbsp;&lt;br&gt;&lt;span&gt;ARC Swift&lt;/span&gt;" style="ellipse;whiteSpace=wrap;html=1;" parent="1" vertex="1">
                    <mxGeometry x="140" y="560" width="120" height="80" as="geometry"/>
                </mxCell>
                <mxCell id="10" value="Mengelola&amp;nbsp;&lt;br&gt;&lt;span&gt;Location RMS&lt;/span&gt;" style="ellipse;whiteSpace=wrap;html=1;" parent="1" vertex="1">
                    <mxGeometry x="160" y="330" width="120" height="80" as="geometry"/>
                </mxCell>
                <mxCell id="24" style="edgeStyle=none;html=1;endArrow=classic;endFill=1;dashed=1;" parent="1" source="11" target="21" edge="1">
                    <mxGeometry relative="1" as="geometry"/>
                </mxCell>
                <mxCell id="36" value="&amp;lt;extend&amp;gt;" style="edgeLabel;html=1;align=center;verticalAlign=middle;resizable=0;points=[];" parent="24" vertex="1" connectable="0">
                    <mxGeometry x="0.3397" relative="1" as="geometry">
                        <mxPoint x="-2" y="-1" as="offset"/>
                    </mxGeometry>
                </mxCell>
                <mxCell id="25" style="edgeStyle=none;html=1;endArrow=classic;endFill=1;startArrow=none;startFill=0;dashed=1;" parent="1" source="11" target="19" edge="1">
                    <mxGeometry relative="1" as="geometry"/>
                </mxCell>
                <mxCell id="38" value="&amp;lt;extend&amp;gt;" style="edgeLabel;html=1;align=center;verticalAlign=middle;resizable=0;points=[];" parent="25" vertex="1" connectable="0">
                    <mxGeometry x="0.2772" y="-2" relative="1" as="geometry">
                        <mxPoint y="5" as="offset"/>
                    </mxGeometry>
                </mxCell>
                <mxCell id="26" style="edgeStyle=none;html=1;endArrow=classic;endFill=1;dashed=1;" parent="1" source="11" target="20" edge="1">
                    <mxGeometry relative="1" as="geometry"/>
                </mxCell>
                <mxCell id="39" value="&amp;lt;extend&amp;gt;" style="edgeLabel;html=1;align=center;verticalAlign=middle;resizable=0;points=[];" parent="26" vertex="1" connectable="0">
                    <mxGeometry x="0.3422" relative="1" as="geometry">
                        <mxPoint x="-14" y="2" as="offset"/>
                    </mxGeometry>
                </mxCell>
                <mxCell id="11" value="&lt;span&gt;Mengelola &lt;br&gt;Dashboard&lt;/span&gt;" style="ellipse;whiteSpace=wrap;html=1;" parent="1" vertex="1">
                    <mxGeometry x="160" y="-110" width="120" height="80" as="geometry"/>
                </mxCell>
                <mxCell id="19" value="Read Report &lt;br&gt;General" style="ellipse;whiteSpace=wrap;html=1;" parent="1" vertex="1">
                    <mxGeometry x="170" y="-230" width="120" height="80" as="geometry"/>
                </mxCell>
                <mxCell id="20" value="Read Report &lt;br&gt;Overview" style="ellipse;whiteSpace=wrap;html=1;" parent="1" vertex="1">
                    <mxGeometry x="305" y="-180" width="120" height="80" as="geometry"/>
                </mxCell>
                <mxCell id="23" style="edgeStyle=none;html=1;endArrow=none;endFill=0;dashed=1;startArrow=classic;startFill=1;" parent="1" source="21" target="22" edge="1">
                    <mxGeometry relative="1" as="geometry"/>
                </mxCell>
                <mxCell id="37" value="&amp;lt;include&amp;gt;" style="edgeLabel;html=1;align=center;verticalAlign=middle;resizable=0;points=[];" parent="23" vertex="1" connectable="0">
                    <mxGeometry x="0.443" y="1" relative="1" as="geometry">
                        <mxPoint x="14" y="2" as="offset"/>
                    </mxGeometry>
                </mxCell>
                <mxCell id="21" value="Read &lt;br&gt;ARC Report" style="ellipse;whiteSpace=wrap;html=1;" parent="1" vertex="1">
                    <mxGeometry x="560" y="-150" width="120" height="80" as="geometry"/>
                </mxCell>
                <mxCell id="22" value="Export" style="ellipse;whiteSpace=wrap;html=1;" parent="1" vertex="1">
                    <mxGeometry x="288" y="-265" width="120" height="80" as="geometry"/>
                </mxCell>
                <mxCell id="32" style="edgeStyle=none;html=1;endArrow=none;endFill=0;entryX=1;entryY=0.5;entryDx=0;entryDy=0;exitX=0;exitY=0.5;exitDx=0;exitDy=0;dashed=1;startArrow=classic;startFill=1;" parent="1" source="27" target="10" edge="1">
                    <mxGeometry relative="1" as="geometry">
                        <mxPoint x="340" y="330" as="sourcePoint"/>
                        <mxPoint x="280" y="370" as="targetPoint"/>
                    </mxGeometry>
                </mxCell>
                <mxCell id="40" value="&amp;lt;extend&amp;gt;" style="edgeLabel;html=1;align=center;verticalAlign=middle;resizable=0;points=[];" parent="32" vertex="1" connectable="0">
                    <mxGeometry x="0.3859" relative="1" as="geometry">
                        <mxPoint x="12" y="8" as="offset"/>
                    </mxGeometry>
                </mxCell>
                <mxCell id="27" value="CRUD Data &lt;br&gt;Docfile RMS" style="ellipse;whiteSpace=wrap;html=1;" parent="1" vertex="1">
                    <mxGeometry x="347" y="350" width="120" height="80" as="geometry"/>
                </mxCell>
                <mxCell id="45" style="edgeStyle=none;html=1;dashed=1;startArrow=classic;startFill=1;endArrow=none;endFill=0;" parent="1" source="27" target="44" edge="1">
                    <mxGeometry relative="1" as="geometry">
                        <mxPoint x="476.48311134040705" y="409.45747774101983" as="sourcePoint"/>
                    </mxGeometry>
                </mxCell>
                <mxCell id="46" value="&amp;lt;include&amp;gt;" style="edgeLabel;html=1;align=center;verticalAlign=middle;resizable=0;points=[];" parent="45" vertex="1" connectable="0">
                    <mxGeometry x="0.3266" relative="1" as="geometry">
                        <mxPoint x="-5" y="4" as="offset"/>
                    </mxGeometry>
                </mxCell>
                <mxCell id="44" value="Export" style="ellipse;whiteSpace=wrap;html=1;" parent="1" vertex="1">
                    <mxGeometry x="550.11" y="360" width="120" height="80" as="geometry"/>
                </mxCell>
                <mxCell id="47" value="CRUD Data &lt;br&gt;Docfile RMS" style="ellipse;whiteSpace=wrap;html=1;" parent="1" vertex="1">
                    <mxGeometry x="340" y="60" width="120" height="80" as="geometry"/>
                </mxCell>
                <mxCell id="48" style="edgeStyle=none;html=1;dashed=1;startArrow=classic;startFill=1;endArrow=none;endFill=0;" parent="1" source="47" target="50" edge="1">
                    <mxGeometry relative="1" as="geometry">
                        <mxPoint x="396.48311134040705" y="339.45747774101983" as="sourcePoint"/>
                    </mxGeometry>
                </mxCell>
                <mxCell id="49" value="&amp;lt;include&amp;gt;" style="edgeLabel;html=1;align=center;verticalAlign=middle;resizable=0;points=[];" parent="48" vertex="1" connectable="0">
                    <mxGeometry x="0.3266" relative="1" as="geometry">
                        <mxPoint x="-5" y="2" as="offset"/>
                    </mxGeometry>
                </mxCell>
                <mxCell id="78" style="edgeStyle=none;html=1;startArrow=none;startFill=0;endArrow=classic;endFill=1;" parent="1" source="50" target="77" edge="1">
                    <mxGeometry relative="1" as="geometry"/>
                </mxCell>
                <mxCell id="81" value="&lt;span style=&quot;color: rgba(0, 0, 0, 0); font-family: monospace; font-size: 0px; text-align: start; background-color: rgb(42, 37, 47);&quot;&gt;%3CmxGraphModel%3E%3Croot%3E%3CmxCell%20id%3D%220%22%2F%3E%3CmxCell%20id%3D%221%22%20parent%3D%220%22%2F%3E%3CmxCell%20id%3D%222%22%20value%3D%22%26amp%3Blt%3Binclude%26amp%3Bgt%3B%22%20style%3D%22edgeLabel%3Bhtml%3D1%3Balign%3Dcenter%3BverticalAlign%3Dmiddle%3Bresizable%3D0%3Bpoints%3D%5B%5D%3B%22%20vertex%3D%221%22%20connectable%3D%220%22%20parent%3D%221%22%3E%3CmxGeometry%20x%3D%22394.97912969807567%22%20y%3D%2235.1157210730662%22%20as%3D%22geometry%22%2F%3E%3C%2FmxCell%3E%3C%2Froot%3E%3C%2FmxGraphModel%3E&lt;/span&gt;" style="edgeLabel;html=1;align=center;verticalAlign=middle;resizable=0;points=[];" parent="78" vertex="1" connectable="0">
                    <mxGeometry x="0.4127" relative="1" as="geometry">
                        <mxPoint as="offset"/>
                    </mxGeometry>
                </mxCell>
                <mxCell id="82" value="&amp;lt;include&amp;gt;" style="edgeLabel;html=1;align=center;verticalAlign=middle;resizable=0;points=[];" parent="78" vertex="1" connectable="0">
                    <mxGeometry x="0.2416" y="-2" relative="1" as="geometry">
                        <mxPoint x="-11" y="-4" as="offset"/>
                    </mxGeometry>
                </mxCell>
                <mxCell id="50" value="Export" style="ellipse;whiteSpace=wrap;html=1;" parent="1" vertex="1">
                    <mxGeometry x="320" y="-60" width="120" height="80" as="geometry"/>
                </mxCell>
                <mxCell id="53" value="CRUD Data &lt;br&gt;Docfile RMS" style="ellipse;whiteSpace=wrap;html=1;" parent="1" vertex="1">
                    <mxGeometry x="350" y="460" width="120" height="80" as="geometry"/>
                </mxCell>
                <mxCell id="55" style="edgeStyle=none;html=1;dashed=1;startArrow=classic;startFill=1;endArrow=none;endFill=0;" parent="1" source="53" target="57" edge="1">
                    <mxGeometry relative="1" as="geometry">
                        <mxPoint x="469.99786201391305" y="497.55559746882" as="sourcePoint"/>
                    </mxGeometry>
                </mxCell>
                <mxCell id="56" value="&amp;lt;include&amp;gt;" style="edgeLabel;html=1;align=center;verticalAlign=middle;resizable=0;points=[];" parent="55" vertex="1" connectable="0">
                    <mxGeometry x="0.3266" relative="1" as="geometry">
                        <mxPoint x="-5" as="offset"/>
                    </mxGeometry>
                </mxCell>
                <mxCell id="57" value="Export" style="ellipse;whiteSpace=wrap;html=1;" parent="1" vertex="1">
                    <mxGeometry x="550.11" y="450" width="120" height="80" as="geometry"/>
                </mxCell>
                <mxCell id="60" style="edgeStyle=none;html=1;dashed=1;startArrow=none;startFill=0;endArrow=classic;endFill=1;" parent="1" source="59" target="4" edge="1">
                    <mxGeometry relative="1" as="geometry"/>
                </mxCell>
                <mxCell id="61" value="&amp;lt;include&amp;gt;" style="edgeLabel;html=1;align=center;verticalAlign=middle;resizable=0;points=[];" parent="60" vertex="1" connectable="0">
                    <mxGeometry x="-0.5981" y="2" relative="1" as="geometry">
                        <mxPoint x="8" y="5" as="offset"/>
                    </mxGeometry>
                </mxCell>
                <mxCell id="59" value="Login" style="ellipse;whiteSpace=wrap;html=1;" parent="1" vertex="1">
                    <mxGeometry x="-70" y="-210" width="120" height="80" as="geometry"/>
                </mxCell>
                <mxCell id="62" value="CRUD Data &lt;br&gt;Full General Report" style="ellipse;whiteSpace=wrap;html=1;" parent="1" vertex="1">
                    <mxGeometry x="330" y="150" width="120" height="80" as="geometry"/>
                </mxCell>
                <mxCell id="63" style="edgeStyle=none;html=1;dashed=1;startArrow=classic;startFill=1;endArrow=none;endFill=0;" parent="1" source="62" target="65" edge="1">
                    <mxGeometry relative="1" as="geometry">
                        <mxPoint x="489.8630964849415" y="197.2994091811306" as="sourcePoint"/>
                    </mxGeometry>
                </mxCell>
                <mxCell id="64" value="&amp;lt;include&amp;gt;" style="edgeLabel;html=1;align=center;verticalAlign=middle;resizable=0;points=[];" parent="63" vertex="1" connectable="0">
                    <mxGeometry x="0.3266" relative="1" as="geometry">
                        <mxPoint x="-8" y="-3" as="offset"/>
                    </mxGeometry>
                </mxCell>
                <mxCell id="65" value="Export" style="ellipse;whiteSpace=wrap;html=1;" parent="1" vertex="1">
                    <mxGeometry x="530" y="160" width="120" height="80" as="geometry"/>
                </mxCell>
                <mxCell id="68" value="&lt;span&gt;CRUD Data &lt;br&gt;ARC Swift&lt;/span&gt;" style="ellipse;whiteSpace=wrap;html=1;" parent="1" vertex="1">
                    <mxGeometry x="340" y="560" width="120" height="80" as="geometry"/>
                </mxCell>
                <mxCell id="70" style="edgeStyle=none;html=1;dashed=1;startArrow=classic;startFill=1;endArrow=none;endFill=0;" parent="1" source="68" target="72" edge="1">
                    <mxGeometry relative="1" as="geometry">
                        <mxPoint x="487.61" y="620" as="sourcePoint"/>
                    </mxGeometry>
                </mxCell>
                <mxCell id="71" value="&amp;lt;include&amp;gt;" style="edgeLabel;html=1;align=center;verticalAlign=middle;resizable=0;points=[];" parent="70" vertex="1" connectable="0">
                    <mxGeometry x="0.3266" relative="1" as="geometry">
                        <mxPoint x="-5" y="2" as="offset"/>
                    </mxGeometry>
                </mxCell>
                <mxCell id="72" value="Export" style="ellipse;whiteSpace=wrap;html=1;" parent="1" vertex="1">
                    <mxGeometry x="550" y="550" width="120" height="80" as="geometry"/>
                </mxCell>
                <mxCell id="79" style="edgeStyle=none;html=1;startArrow=none;startFill=0;endArrow=classic;endFill=1;dashed=1;" parent="1" source="76" target="77" edge="1">
                    <mxGeometry relative="1" as="geometry"/>
                </mxCell>
                <mxCell id="80" value="&amp;lt;extend&amp;gt;" style="edgeLabel;html=1;align=center;verticalAlign=middle;resizable=0;points=[];" parent="79" vertex="1" connectable="0">
                    <mxGeometry x="-0.3019" relative="1" as="geometry">
                        <mxPoint x="-7" y="2" as="offset"/>
                    </mxGeometry>
                </mxCell>
                <mxCell id="76" value="Mengelola&amp;nbsp;&lt;br&gt;&lt;span&gt;Analytics&lt;/span&gt;" style="ellipse;whiteSpace=wrap;html=1;" parent="1" vertex="1">
                    <mxGeometry x="700" y="-50" width="120" height="80" as="geometry"/>
                </mxCell>
                <mxCell id="77" value="Read Report &lt;br&gt;Spesific Plane" style="ellipse;whiteSpace=wrap;html=1;" parent="1" vertex="1">
                    <mxGeometry x="510" y="-30" width="120" height="80" as="geometry"/>
                </mxCell>
                <mxCell id="86" style="edgeStyle=none;html=1;startArrow=none;startFill=0;endArrow=classic;endFill=1;dashed=1;" parent="1" source="83" target="85" edge="1">
                    <mxGeometry relative="1" as="geometry"/>
                </mxCell>
                <mxCell id="87" value="&amp;lt;extend&amp;gt;" style="edgeLabel;html=1;align=center;verticalAlign=middle;resizable=0;points=[];" parent="86" vertex="1" connectable="0">
                    <mxGeometry x="-0.4874" relative="1" as="geometry">
                        <mxPoint x="-14" y="2" as="offset"/>
                    </mxGeometry>
                </mxCell>
                <mxCell id="83" value="Mengelola&amp;nbsp;&lt;br&gt;&lt;span&gt;Action&lt;/span&gt;" style="ellipse;whiteSpace=wrap;html=1;" parent="1" vertex="1">
                    <mxGeometry x="680" y="50" width="120" height="80" as="geometry"/>
                </mxCell>
                <mxCell id="85" value="Read Report &lt;br&gt;Spesific Plane" style="ellipse;whiteSpace=wrap;html=1;" parent="1" vertex="1">
                    <mxGeometry x="467" y="53" width="120" height="80" as="geometry"/>
                </mxCell>
                <mxCell id="88" style="edgeStyle=none;html=1;dashed=1;startArrow=classic;startFill=1;endArrow=none;endFill=0;" parent="1" source="65" target="85" edge="1">
                    <mxGeometry relative="1" as="geometry">
                        <mxPoint x="459.8340309548844" y="202.9731195505533" as="sourcePoint"/>
                        <mxPoint x="540.1538016834274" y="207.13779051529423" as="targetPoint"/>
                    </mxGeometry>
                </mxCell>
                <mxCell id="89" value="&amp;lt;include&amp;gt;" style="edgeLabel;html=1;align=center;verticalAlign=middle;resizable=0;points=[];" parent="88" vertex="1" connectable="0">
                    <mxGeometry x="0.3266" relative="1" as="geometry">
                        <mxPoint x="-1" as="offset"/>
                    </mxGeometry>
                </mxCell>
                <mxCell id="92" value="User Case Diagram ARC" style="text;html=1;strokeColor=none;fillColor=none;align=center;verticalAlign=middle;whiteSpace=wrap;rounded=0;fontSize=18;" parent="1" vertex="1">
                    <mxGeometry x="362.5" y="-390" width="205" height="30" as="geometry"/>
                </mxCell>
                <mxCell id="93" value="Logout" style="ellipse;whiteSpace=wrap;html=1;" parent="1" vertex="1">
                    <mxGeometry x="530" y="260" width="120" height="80" as="geometry"/>
                </mxCell>
            </root>
        </mxGraphModel>
    </diagram>
</mxfile>